<svg width="815" height="522" viewBox="0 0 815 522" fill="none" xmlns="http://www.w3.org/2000/svg">
<path d="M122.701 142.544C124.06 127.89 127.815 113.558 133.815 100.122C135.487 96.3829 137.328 92.726 139.336 89.1514C139.437 88.9645 139.461 88.7457 139.404 88.5412C139.347 88.3367 139.212 88.1625 139.029 88.0554C138.846 87.9482 138.628 87.9164 138.422 87.9667C138.216 88.0171 138.037 88.1456 137.924 88.3251C130.619 101.345 125.501 115.477 122.775 130.158C122.016 134.258 121.447 138.387 121.065 142.544C120.968 143.593 122.604 143.586 122.701 142.544Z" fill="#E6E6E6"/>
<path d="M143.298 91.7771C149.019 91.7771 153.657 87.1348 153.657 81.4082C153.657 75.6817 149.019 71.0394 143.298 71.0394C137.577 71.0394 132.939 75.6817 132.939 81.4082C132.939 87.1348 137.577 91.7771 143.298 91.7771Z" fill="#E6E6E6"/>
<path d="M123.76 142.82C124.642 133.313 127.078 124.015 130.971 115.298C132.055 112.873 133.249 110.5 134.553 108.181C134.618 108.06 134.634 107.918 134.597 107.785C134.559 107.653 134.472 107.54 134.353 107.47C134.234 107.401 134.093 107.38 133.96 107.413C133.826 107.445 133.71 107.529 133.636 107.645C128.897 116.092 125.577 125.26 123.808 134.784C123.316 137.444 122.947 140.123 122.699 142.82C122.636 143.5 123.698 143.496 123.76 142.82Z" fill="#E6E6E6"/>
<path d="M137.123 109.885C140.834 109.885 143.843 106.873 143.843 103.158C143.843 99.4428 140.834 96.4311 137.123 96.4311C133.411 96.4311 130.402 99.4428 130.402 103.158C130.402 106.873 133.411 109.885 137.123 109.885Z" fill="#E6E6E6"/>
<path d="M122.421 142.185C117.275 134.146 113.482 125.315 111.195 116.046C110.56 113.465 110.043 110.86 109.646 108.229C109.623 108.093 109.548 107.971 109.437 107.89C109.327 107.808 109.188 107.772 109.052 107.791C108.915 107.809 108.791 107.88 108.706 107.988C108.621 108.096 108.581 108.233 108.594 108.37C110.047 117.948 113.063 127.221 117.521 135.819C118.768 138.219 120.122 140.559 121.584 142.838C121.953 143.413 122.787 142.756 122.421 142.185Z" fill="#E6E6E6"/>
<path d="M108.586 109.412C112.297 109.412 115.306 106.401 115.306 102.686C115.306 98.9706 112.297 95.9589 108.586 95.9589C104.874 95.9589 101.865 98.9706 101.865 102.686C101.865 106.401 104.874 109.412 108.586 109.412Z" fill="#E6E6E6"/>
<path d="M101.79 148.136V134.92C101.791 133.606 102.313 132.346 103.242 131.417C104.17 130.488 105.429 129.965 106.741 129.963H137.551C138.864 129.965 140.122 130.488 141.051 131.417C141.979 132.346 142.501 133.606 142.503 134.92V148.136C142.501 149.45 141.979 150.71 141.051 151.639C140.122 152.568 138.864 153.091 137.551 153.093H106.741C105.429 153.091 104.17 152.568 103.242 151.639C102.313 150.71 101.791 149.45 101.79 148.136Z" fill="#F2F2F2"/>
<path d="M136.451 63.8804H123.246C121.934 63.8789 120.675 63.3562 119.747 62.4271C118.819 61.4979 118.296 60.2381 118.295 58.9241V4.95623C118.296 3.64221 118.819 2.38244 119.747 1.45328C120.675 0.524129 121.934 0.00148088 123.246 0H136.451C137.763 0.00148088 139.022 0.524129 139.95 1.45328C140.879 2.38244 141.401 3.64221 141.402 4.95623V58.9241C141.401 60.2381 140.879 61.4979 139.95 62.4271C139.022 63.3562 137.763 63.8789 136.451 63.8804Z" fill="#F2F2F2"/>
<path d="M140.852 10.4632H118.845V14.8687H140.852V10.4632Z" fill="#CCCCCC"/>
<path d="M140.852 44.6061H118.845V49.0117H140.852V44.6061Z" fill="#CCCCCC"/>
<path d="M169.461 63.8804H156.257C154.944 63.8789 153.686 63.3562 152.757 62.4271C151.829 61.4979 151.307 60.2381 151.305 58.9241V4.95623C151.307 3.64221 151.829 2.38244 152.757 1.45328C153.686 0.524129 154.944 0.00148088 156.257 0H169.461C170.774 0.00148088 172.033 0.524129 172.961 1.45328C173.889 2.38244 174.411 3.64221 174.413 4.95623V58.9241C174.411 60.2381 173.889 61.4979 172.961 62.4271C172.033 63.3562 170.774 63.8789 169.461 63.8804Z" fill="#F2F2F2"/>
<path d="M173.863 10.4632H151.856V14.8687H173.863V10.4632Z" fill="#CCCCCC"/>
<path d="M173.863 44.6061H151.856V49.0117H173.863V44.6061Z" fill="#CCCCCC"/>
<path d="M202.472 63.8804H189.267C187.955 63.8789 186.696 63.3562 185.768 62.4271C184.839 61.4979 184.317 60.2381 184.316 58.9241V4.95623C184.317 3.64221 184.839 2.38244 185.768 1.45328C186.696 0.524129 187.955 0.00148088 189.267 0H202.472C203.784 0.00148088 205.043 0.524129 205.971 1.45328C206.899 2.38244 207.422 3.64221 207.423 4.95623V58.9241C207.422 60.2381 206.899 61.4979 205.971 62.4271C205.043 63.3562 203.784 63.8789 202.472 63.8804Z" fill="#F2F2F2"/>
<path d="M206.873 10.4632H184.866V14.8687H206.873V10.4632Z" fill="#CCCCCC"/>
<path d="M206.873 44.6061H184.866V49.0117H206.873V44.6061Z" fill="#CCCCCC"/>
<path d="M220.077 153.093H206.873C205.56 153.091 204.302 152.568 203.373 151.639C202.445 150.71 201.923 149.45 201.921 148.136V94.1685C201.923 92.8544 202.445 91.5946 203.373 90.6655C204.302 89.7363 205.56 89.2137 206.873 89.2122H220.077C221.39 89.2137 222.649 89.7363 223.577 90.6655C224.505 91.5946 225.027 92.8544 225.029 94.1685V148.136C225.027 149.45 224.505 150.71 223.577 151.639C222.649 152.568 221.39 153.091 220.077 153.093Z" fill="#F2F2F2"/>
<path d="M224.478 99.6754H202.472V104.081H224.478V99.6754Z" fill="#CCCCCC"/>
<path d="M224.478 133.818H202.472V138.224H224.478V133.818Z" fill="#CCCCCC"/>
<path d="M253.088 153.093H239.883C238.571 153.091 237.312 152.568 236.384 151.639C235.456 150.71 234.933 149.45 234.932 148.136V94.1685C234.933 92.8544 235.456 91.5946 236.384 90.6655C237.312 89.7363 238.571 89.2137 239.883 89.2122H253.088C254.4 89.2137 255.659 89.7363 256.587 90.6655C257.516 91.5946 258.038 92.8544 258.039 94.1685V148.136C258.038 149.45 257.516 150.71 256.587 151.639C255.659 152.568 254.4 153.091 253.088 153.093Z" fill="#F2F2F2"/>
<path d="M257.489 99.6754H235.482V104.081H257.489V99.6754Z" fill="#CCCCCC"/>
<path d="M257.489 133.818H235.482V138.224H257.489V133.818Z" fill="#CCCCCC"/>
<path d="M286.098 153.093H272.894C271.581 153.091 270.322 152.568 269.394 151.639C268.466 150.71 267.944 149.45 267.942 148.136V94.1685C267.944 92.8544 268.466 91.5946 269.394 90.6655C270.322 89.7363 271.581 89.2137 272.894 89.2122H286.098C287.411 89.2137 288.669 89.7363 289.598 90.6655C290.526 91.5946 291.048 92.8544 291.049 94.1685V148.136C291.048 149.45 290.526 150.71 289.598 151.639C288.669 152.568 287.411 153.091 286.098 153.093Z" fill="#F2F2F2"/>
<path d="M290.499 99.6754H268.492V104.081H290.499V99.6754Z" fill="#CCCCCC"/>
<path d="M290.499 133.818H268.492V138.224H290.499V133.818Z" fill="#CCCCCC"/>
<path d="M133.15 242.305H119.945C118.633 242.303 117.374 241.781 116.446 240.851C115.518 239.922 114.995 238.663 114.994 237.349V183.381C114.995 182.067 115.518 180.807 116.446 179.878C117.374 178.949 118.633 178.426 119.945 178.424H133.15C134.462 178.426 135.721 178.949 136.649 179.878C137.578 180.807 138.1 182.067 138.101 183.381V237.349C138.1 238.663 137.578 239.922 136.649 240.851C135.721 241.781 134.462 242.303 133.15 242.305Z" fill="#F2F2F2"/>
<path d="M137.551 188.888H115.544V193.293H137.551V188.888Z" fill="#CCCCCC"/>
<path d="M137.551 223.031H115.544V227.436H137.551V223.031Z" fill="#CCCCCC"/>
<path d="M166.16 242.305H152.956C151.643 242.303 150.385 241.781 149.456 240.851C148.528 239.922 148.006 238.663 148.004 237.349V183.381C148.006 182.067 148.528 180.807 149.456 179.878C150.385 178.949 151.643 178.426 152.956 178.424H166.16C167.473 178.426 168.732 178.949 169.66 179.878C170.588 180.807 171.11 182.067 171.112 183.381V237.349C171.11 238.663 170.588 239.922 169.66 240.851C168.732 241.781 167.473 242.303 166.16 242.305Z" fill="#F2F2F2"/>
<path d="M170.561 188.888H148.555V193.293H170.561V188.888Z" fill="#CCCCCC"/>
<path d="M170.561 223.031H148.555V227.436H170.561V223.031Z" fill="#CCCCCC"/>
<path d="M199.17 242.305H185.966C184.654 242.303 183.395 241.781 182.467 240.851C181.538 239.922 181.016 238.663 181.015 237.349V183.381C181.016 182.067 181.538 180.807 182.467 179.878C183.395 178.949 184.654 178.426 185.966 178.424H199.17C200.483 178.426 201.742 178.949 202.67 179.878C203.598 180.807 204.121 182.067 204.122 183.381V237.349C204.121 238.663 203.598 239.922 202.67 240.851C201.742 241.781 200.483 242.303 199.17 242.305Z" fill="#F2F2F2"/>
<path d="M203.572 188.888H181.565V193.293H203.572V188.888Z" fill="#CCCCCC"/>
<path d="M203.572 223.031H181.565V227.436H203.572V223.031Z" fill="#CCCCCC"/>
<path d="M235.482 63.8804H222.278C220.965 63.8789 219.706 63.3562 218.778 62.4271C217.85 61.4979 217.328 60.2381 217.326 58.9241V4.95623C217.328 3.64221 217.85 2.38244 218.778 1.45328C219.706 0.524129 220.965 0.00148088 222.278 0H235.482C236.795 0.00148088 238.053 0.524129 238.982 1.45328C239.91 2.38244 240.432 3.64221 240.433 4.95623V58.9241C240.432 60.2381 239.91 61.4979 238.982 62.4271C238.053 63.3562 236.795 63.8789 235.482 63.8804Z" fill="#F2F2F2"/>
<path d="M239.883 10.4632H217.876V14.8687H239.883V10.4632Z" fill="#CCCCCC"/>
<path d="M239.883 44.6061H217.876V49.0117H239.883V44.6061Z" fill="#CCCCCC"/>
<path d="M268.492 63.8804H255.288C253.975 63.8789 252.717 63.3562 251.789 62.4271C250.86 61.4979 250.338 60.2381 250.337 58.9241V4.95623C250.338 3.64221 250.86 2.38244 251.789 1.45328C252.717 0.524129 253.975 0.00148088 255.288 0H268.492C269.805 0.00148088 271.064 0.524129 271.992 1.45328C272.92 2.38244 273.442 3.64221 273.444 4.95623V58.9241C273.442 60.2381 272.92 61.4979 271.992 62.4271C271.064 63.3562 269.805 63.8789 268.492 63.8804Z" fill="#F2F2F2"/>
<path d="M272.894 10.4632H250.887V14.8687H272.894V10.4632Z" fill="#CCCCCC"/>
<path d="M272.894 44.6061H250.887V49.0117H272.894V44.6061Z" fill="#CCCCCC"/>
<path d="M301.503 63.8804H288.299C286.986 63.8789 285.727 63.3562 284.799 62.4271C283.871 61.4979 283.349 60.2381 283.347 58.9241V4.95623C283.349 3.64221 283.871 2.38244 284.799 1.45328C285.727 0.524129 286.986 0.00148088 288.299 0H301.503C302.816 0.00148088 304.074 0.524129 305.003 1.45328C305.931 2.38244 306.453 3.64221 306.454 4.95623V58.9241C306.453 60.2381 305.931 61.4979 305.003 62.4271C304.074 63.3562 302.816 63.8789 301.503 63.8804Z" fill="#F2F2F2"/>
<path d="M305.904 10.4632H283.897V14.8687H305.904V10.4632Z" fill="#CCCCCC"/>
<path d="M305.904 44.6061H283.897V49.0117H305.904V44.6061Z" fill="#CCCCCC"/>
<path d="M334.513 63.8804H321.309C319.996 63.8789 318.738 63.3562 317.809 62.4271C316.881 61.4979 316.359 60.2381 316.357 58.9241V4.95623C316.359 3.64221 316.881 2.38244 317.809 1.45328C318.738 0.524129 319.996 0.00148088 321.309 0H334.513C335.826 0.00148088 337.085 0.524129 338.013 1.45328C338.941 2.38244 339.463 3.64221 339.465 4.95623V58.9241C339.463 60.2381 338.941 61.4979 338.013 62.4271C337.085 63.3562 335.826 63.8789 334.513 63.8804Z" fill="#F2F2F2"/>
<path d="M338.915 10.4632H316.908V14.8687H338.915V10.4632Z" fill="#CCCCCC"/>
<path d="M338.915 44.6061H316.908V49.0117H338.915V44.6061Z" fill="#CCCCCC"/>
<path d="M383.964 65.5324H70.3649C70.073 65.5324 69.7932 65.4164 69.5868 65.2098C69.3805 65.0033 69.2645 64.7232 69.2645 64.4311C69.2645 64.1389 69.3805 63.8588 69.5868 63.6522C69.7932 63.4457 70.073 63.3297 70.3649 63.3297H383.964C384.256 63.3297 384.535 63.4457 384.742 63.6522C384.948 63.8588 385.064 64.1389 385.064 64.4311C385.064 64.7232 384.948 65.0033 384.742 65.2098C384.535 65.4164 384.256 65.5324 383.964 65.5324Z" fill="#CCCCCC"/>
<path d="M383.964 154.745H70.3649C70.073 154.745 69.7932 154.629 69.5868 154.422C69.3805 154.215 69.2645 153.935 69.2645 153.643C69.2645 153.351 69.3805 153.071 69.5868 152.864C69.7932 152.658 70.073 152.542 70.3649 152.542H383.964C384.256 152.542 384.535 152.658 384.742 152.864C384.948 153.071 385.064 153.351 385.064 153.643C385.064 153.935 384.948 154.215 384.742 154.422C384.535 154.629 384.256 154.745 383.964 154.745Z" fill="#CCCCCC"/>
<path d="M383.964 243.957H70.3649C70.073 243.957 69.7932 243.841 69.5868 243.634C69.3805 243.428 69.2645 243.148 69.2645 242.855C69.2645 242.563 69.3805 242.283 69.5868 242.077C69.7932 241.87 70.073 241.754 70.3649 241.754H383.964C384.256 241.754 384.535 241.87 384.742 242.077C384.948 242.283 385.064 242.563 385.064 242.855C385.064 243.148 384.948 243.428 384.742 243.634C384.535 243.841 384.256 243.957 383.964 243.957Z" fill="#CCCCCC"/>
<path d="M365.392 416.855C365.392 408.339 333.37 401.435 293.87 401.435C254.369 401.435 222.347 408.339 222.347 416.855C222.347 422.313 235.512 427.105 255.358 429.845V514.327C255.358 516.226 256.111 518.047 257.452 519.39C258.794 520.732 260.613 521.486 262.51 521.486C264.407 521.486 266.226 520.732 267.567 519.39C268.909 518.047 269.662 516.226 269.662 514.327V431.367C277.224 431.953 285.372 432.274 293.87 432.274C302.368 432.274 310.516 431.953 318.077 431.367V514.327C318.077 516.226 318.831 518.047 320.172 519.39C321.514 520.732 323.333 521.486 325.23 521.486C327.127 521.486 328.946 520.732 330.287 519.39C331.628 518.047 332.382 516.226 332.382 514.327V429.845C352.227 427.105 365.392 422.313 365.392 416.855Z" fill="#CCCCCC"/>
<path d="M351.63 507.635H365.12L371.538 455.553H351.628L351.63 507.635Z" fill="#A0616A"/>
<path d="M391.137 520.172L348.74 520.174L348.739 503.777L374.756 503.776C379.1 503.776 383.267 505.503 386.339 508.578C389.411 511.653 391.137 515.823 391.137 520.172L391.137 520.172Z" fill="#2F2E41"/>
<path d="M372.689 500.099L385.56 496.056L376.105 444.44L357.109 450.406L372.689 500.099Z" fill="#A0616A"/>
<path d="M414.133 500.222L373.681 512.928L368.776 497.284L393.599 489.487C397.744 488.185 402.236 488.585 406.087 490.598C409.938 492.611 412.832 496.073 414.133 500.222Z" fill="#2F2E41"/>
<path d="M363.664 476.128L338.986 411.288C333.449 412.589 287.02 422.873 271.47 406.3C266.14 400.62 265.101 392.391 268.38 381.841L277.456 370.426L277.738 370.441C281.169 370.621 361.843 375.147 367.373 399.505C372.036 420.04 380.552 458.325 383.05 469.57C383.304 470.735 383.13 471.952 382.562 473C381.994 474.048 381.068 474.857 379.954 475.279L370.029 479.004C369.477 479.212 368.891 479.319 368.3 479.319C367.295 479.319 366.314 479.013 365.487 478.444C364.659 477.874 364.023 477.066 363.664 476.128Z" fill="#2F2E41"/>
<path d="M349.359 483.837L324.681 418.997C319.144 420.299 272.715 430.581 257.165 414.01C251.836 408.33 250.796 400.101 254.076 389.55L263.151 378.135L263.433 378.15C266.864 378.331 347.538 382.857 353.069 407.215C357.731 427.749 366.247 466.034 368.745 477.279C368.999 478.445 368.825 479.662 368.257 480.71C367.689 481.758 366.763 482.567 365.649 482.989L355.725 486.713C355.172 486.922 354.586 487.028 353.995 487.028C352.99 487.028 352.01 486.723 351.182 486.153C350.354 485.584 349.718 484.776 349.359 483.837Z" fill="#2F2E41"/>
<path d="M382.708 328.407C382.344 328.895 382.018 329.411 381.735 329.951L327.465 335.674L319.653 324.953L301.948 334.639L317.292 360.655L383.849 343.669C385.528 345.307 387.666 346.396 389.978 346.788C392.29 347.181 394.667 346.86 396.792 345.868C398.918 344.876 400.691 343.26 401.876 341.234C403.062 339.209 403.603 336.87 403.428 334.529C403.253 332.189 402.37 329.956 400.897 328.13C399.424 326.304 397.43 324.969 395.181 324.305C392.932 323.64 390.534 323.677 388.306 324.409C386.078 325.142 384.125 326.536 382.708 328.407V328.407Z" fill="#A0616A"/>
<path d="M253.727 392.974C252.984 392.438 252.404 391.707 252.051 390.862C251.698 390.017 251.585 389.09 251.726 388.184C254.787 367.982 251.265 339.042 247.77 318.321C247.055 314.116 247.333 309.803 248.583 305.726C249.833 301.649 252.019 297.921 254.967 294.842C257.915 291.762 261.542 289.417 265.558 287.993C269.575 286.569 273.868 286.107 278.095 286.643C281.773 287.129 285.416 287.848 289.003 288.795C294.961 290.297 300.231 293.783 303.947 298.681C307.663 303.578 309.603 309.596 309.449 315.744C308.927 335.738 312.983 360.686 314.751 370.484C314.872 371.157 314.853 371.847 314.695 372.513C314.537 373.178 314.244 373.804 313.834 374.35C313.432 374.892 312.921 375.343 312.334 375.675C311.748 376.007 311.098 376.212 310.428 376.278C290.833 378.28 269.701 387.845 258.85 393.368C258.152 393.728 257.379 393.917 256.594 393.919C255.563 393.916 254.559 393.585 253.727 392.974Z" fill="#D85047"/>
<path d="M306.621 340.866C306.016 340.628 305.463 340.272 304.996 339.818C304.529 339.365 304.156 338.824 303.9 338.225L292.972 312.957C292.31 311.43 291.955 309.788 291.928 308.124C291.901 306.46 292.201 304.807 292.813 303.259C293.424 301.712 294.334 300.3 295.491 299.105C296.647 297.909 298.028 296.954 299.554 296.293C301.08 295.632 302.721 295.278 304.383 295.252C306.045 295.226 307.697 295.528 309.242 296.142C310.788 296.755 312.198 297.667 313.391 298.825C314.584 299.984 315.538 301.367 316.197 302.895L327.125 328.163C327.645 329.37 327.666 330.733 327.182 331.955C326.699 333.177 325.752 334.157 324.548 334.68L310.411 340.806C309.815 341.066 309.173 341.205 308.522 341.216C307.872 341.226 307.226 341.107 306.621 340.866H306.621Z" fill="#D85047"/>
<path d="M330.992 326.204C330.628 326.692 330.302 327.208 330.018 327.748L275.749 333.471L267.937 322.75L250.232 332.436L265.575 358.452L332.133 341.466C333.812 343.105 335.95 344.193 338.262 344.586C340.574 344.979 342.951 344.658 345.076 343.665C347.201 342.673 348.975 341.057 350.16 339.032C351.345 337.006 351.886 334.667 351.712 332.327C351.537 329.986 350.654 327.754 349.181 325.927C347.708 324.101 345.714 322.767 343.465 322.102C341.215 321.437 338.817 321.474 336.589 322.207C334.361 322.939 332.409 324.334 330.992 326.204V326.204Z" fill="#A0616A"/>
<path d="M254.905 341.967C254.3 341.729 253.747 341.373 253.28 340.92C252.813 340.467 252.44 339.925 252.183 339.327L241.255 314.058C240.594 312.532 240.239 310.889 240.212 309.225C240.184 307.561 240.485 305.908 241.096 304.361C241.708 302.813 242.618 301.401 243.774 300.206C244.931 299.011 246.312 298.055 247.837 297.394C249.363 296.733 251.004 296.379 252.667 296.353C254.329 296.328 255.98 296.63 257.526 297.243C259.071 297.856 260.481 298.768 261.675 299.927C262.868 301.086 263.821 302.468 264.48 303.996L275.409 329.265C275.929 330.471 275.949 331.835 275.466 333.056C274.983 334.278 274.036 335.258 272.832 335.782L258.695 341.907C258.098 342.167 257.456 342.307 256.806 342.317C256.155 342.327 255.509 342.209 254.905 341.967H254.905Z" fill="#D85047"/>
<path d="M276.084 278.047C291.01 278.047 303.11 265.936 303.11 250.996C303.11 236.056 291.01 223.945 276.084 223.945C261.158 223.945 249.058 236.056 249.058 250.996C249.058 265.936 261.158 278.047 276.084 278.047Z" fill="#A0616A"/>
<path d="M256.761 269.561C256.645 269.222 256.609 268.86 256.654 268.504C256.699 268.148 256.825 267.808 257.022 267.508C257.219 267.208 257.482 266.958 257.791 266.775C258.1 266.593 258.446 266.484 258.804 266.457C259.536 266.496 260.252 266.684 260.91 267.009C261.567 267.334 262.152 267.788 262.629 268.345C263.607 269.474 264.746 270.453 266.008 271.25C267.316 271.91 269.089 271.816 269.834 270.558C270.534 269.377 270.054 267.796 269.631 266.424C268.552 262.934 267.949 259.315 267.837 255.663C267.715 251.588 268.289 247.335 270.544 244.156C273.453 240.054 278.655 238.496 283.578 238.609C288.501 238.722 293.344 240.243 298.22 241.205C299.904 241.537 301.882 241.706 303.008 240.401C304.206 239.012 303.766 236.764 303.257 234.889C301.935 230.024 300.533 224.994 297.463 221.065C294.143 216.982 289.401 214.309 284.192 213.586C279.191 212.966 274.114 213.543 269.379 215.269C261.664 217.703 254.876 222.437 249.921 228.837C244.814 235.643 242.608 244.197 243.784 252.627C244.932 259.97 248.82 266.603 254.661 271.19L256.761 269.561Z" fill="#2F2E41"/>
<path d="M153.571 334.685C154.93 320.03 158.685 305.699 164.685 292.263C166.357 288.523 168.198 284.867 170.207 281.292C170.308 281.105 170.332 280.886 170.274 280.682C170.217 280.477 170.083 280.303 169.899 280.196C169.716 280.089 169.499 280.057 169.293 280.107C169.086 280.158 168.908 280.286 168.795 280.466C161.489 293.485 156.371 307.618 153.645 322.299C152.887 326.399 152.317 330.527 151.935 334.685C151.838 335.734 153.475 335.727 153.571 334.685Z" fill="#3F3D56"/>
<path d="M174.168 283.918C179.89 283.918 184.528 279.275 184.528 273.549C184.528 267.822 179.89 263.18 174.168 263.18C168.447 263.18 163.809 267.822 163.809 273.549C163.809 279.275 168.447 283.918 174.168 283.918Z" fill="#D85047"/>
<path d="M154.631 334.96C155.513 325.453 157.948 316.156 161.841 307.439C162.926 305.013 164.12 302.641 165.423 300.322C165.488 300.201 165.504 300.059 165.467 299.926C165.43 299.793 165.343 299.68 165.224 299.611C165.105 299.541 164.964 299.521 164.83 299.553C164.696 299.586 164.58 299.669 164.507 299.786C159.767 308.232 156.447 317.401 154.679 326.925C154.187 329.585 153.817 332.263 153.57 334.96C153.507 335.641 154.568 335.636 154.631 334.96Z" fill="#3F3D56"/>
<path d="M167.993 302.025C171.705 302.025 174.714 299.014 174.714 295.299C174.714 291.583 171.705 288.572 167.993 288.572C164.282 288.572 161.273 291.583 161.273 295.299C161.273 299.014 164.282 302.025 167.993 302.025Z" fill="#D85047"/>
<path d="M153.291 334.325C148.145 326.286 144.352 317.456 142.065 308.186C141.43 305.606 140.914 303 140.516 300.369C140.493 300.233 140.419 300.112 140.308 300.03C140.197 299.948 140.059 299.913 139.922 299.931C139.786 299.95 139.662 300.02 139.576 300.128C139.491 300.237 139.451 300.374 139.465 300.511C140.918 310.088 143.934 319.362 148.392 327.96C149.638 330.36 150.992 332.699 152.455 334.979C152.823 335.554 153.658 334.897 153.291 334.325Z" fill="#3F3D56"/>
<path d="M139.456 301.553C143.168 301.553 146.176 298.541 146.176 294.826C146.176 291.111 143.168 288.1 139.456 288.1C135.744 288.1 132.736 291.111 132.736 294.826C132.736 298.541 135.744 301.553 139.456 301.553Z" fill="#D85047"/>
<path d="M132.66 340.277V327.06C132.662 325.746 133.184 324.486 134.112 323.557C135.04 322.628 136.299 322.106 137.612 322.104H168.421C169.734 322.106 170.993 322.628 171.921 323.557C172.849 324.486 173.372 325.746 173.373 327.06V340.277C173.372 341.591 172.849 342.851 171.921 343.78C170.993 344.709 169.734 345.232 168.421 345.233H137.612C136.299 345.232 135.04 344.709 134.112 343.78C133.184 342.851 132.662 341.591 132.66 340.277Z" fill="#CCCCCC"/>
<path d="M408.856 336.454H321.929C319.802 336.454 318.077 338.18 318.077 340.309C318.077 342.438 319.802 344.163 321.929 344.163H408.856C410.983 344.163 412.707 342.438 412.707 340.309C412.707 338.18 410.983 336.454 408.856 336.454Z" fill="#CCCCCC"/>
<path d="M467.174 344.163H369.244C367.347 344.161 365.529 343.406 364.189 342.064C362.848 340.722 362.093 338.902 362.091 337.004V283.037C362.093 281.138 362.848 279.319 364.189 277.977C365.529 276.635 367.347 275.88 369.244 275.878H467.174C469.071 275.88 470.889 276.635 472.229 277.977C473.57 279.319 474.325 281.138 474.327 283.037V337.004C474.325 338.902 473.57 340.722 472.229 342.064C470.889 343.406 469.071 344.161 467.174 344.163Z" fill="#CCCCCC"/>
<path d="M418.209 316.629C421.855 316.629 424.811 313.67 424.811 310.02C424.811 306.371 421.855 303.412 418.209 303.412C414.563 303.412 411.607 306.371 411.607 310.02C411.607 313.67 414.563 316.629 418.209 316.629Z" fill="white"/>
<path d="M716.403 416.855C716.403 408.339 684.381 401.435 644.88 401.435C605.38 401.435 573.358 408.339 573.358 416.855C573.358 422.313 586.523 427.105 606.368 429.845V514.327C606.368 516.226 607.122 518.047 608.463 519.39C609.804 520.732 611.624 521.486 613.521 521.486C615.417 521.486 617.237 520.732 618.578 519.39C619.919 518.047 620.673 516.226 620.673 514.327V431.367C628.234 431.953 636.382 432.274 644.88 432.274C653.379 432.274 661.526 431.953 669.088 431.367V514.327C669.088 516.226 669.842 518.047 671.183 519.39C672.524 520.732 674.343 521.486 676.24 521.486C678.137 521.486 679.956 520.732 681.298 519.39C682.639 518.047 683.393 516.226 683.393 514.327V429.845C703.238 427.105 716.403 422.313 716.403 416.855Z" fill="#CCCCCC"/>
<path d="M652.789 275.721C669.805 275.721 683.599 261.914 683.599 244.882C683.599 227.85 669.805 214.043 652.789 214.043C635.773 214.043 621.979 227.85 621.979 244.882C621.979 261.914 635.773 275.721 652.789 275.721Z" fill="#2F2E41"/>
<path d="M576.117 508.737H562.626L556.209 456.654H576.119L576.117 508.737Z" fill="#FFB8B8"/>
<path d="M552.99 504.878H579.007V521.274H536.61C536.61 519.121 537.033 516.989 537.857 514.999C538.68 513.01 539.886 511.203 541.407 509.68C542.929 508.158 544.734 506.95 546.722 506.126C548.709 505.302 550.839 504.878 552.99 504.878Z" fill="#2F2E41"/>
<path d="M555.058 501.201L542.187 497.158L551.641 445.541L570.638 451.507L555.058 501.201Z" fill="#FFB8B8"/>
<path d="M534.148 490.589L558.971 498.386L554.066 514.03L513.614 501.323C514.258 499.269 515.3 497.362 516.681 495.71C518.061 494.059 519.753 492.696 521.66 491.699C523.566 490.702 525.651 490.091 527.793 489.901C529.936 489.71 532.095 489.944 534.148 490.589Z" fill="#2F2E41"/>
<path d="M559.447 480.42C558.856 480.42 558.27 480.313 557.717 480.105L547.793 476.38C546.679 475.958 545.753 475.15 545.185 474.102C544.617 473.054 544.443 471.836 544.697 470.671C547.195 459.426 555.711 421.141 560.374 400.606C565.904 376.249 646.578 371.723 650.009 371.542L650.291 371.527L659.367 382.942C662.646 393.492 661.606 401.722 656.277 407.402C640.727 423.974 594.297 413.691 588.761 412.389L564.083 477.229C563.724 478.168 563.088 478.975 562.26 479.545C561.433 480.115 560.452 480.42 559.447 480.42Z" fill="#2F2E41"/>
<path d="M573.752 488.13C573.161 488.13 572.575 488.023 572.022 487.815L562.097 484.09C560.983 483.668 560.058 482.859 559.489 481.811C558.921 480.763 558.748 479.546 559.001 478.381C561.5 467.136 570.015 428.851 574.678 408.316C580.208 383.959 660.882 379.433 664.314 379.252L664.596 379.237L673.671 390.652C676.95 401.202 675.911 409.431 670.582 415.111C655.031 431.683 608.602 421.4 603.066 420.099L578.388 484.938C578.028 485.877 577.393 486.685 576.565 487.255C575.737 487.825 574.756 488.13 573.752 488.13Z" fill="#2F2E41"/>
<path d="M545.038 329.508C545.403 329.996 545.728 330.513 546.012 331.052L600.281 336.775L608.093 326.054L625.799 335.74L610.455 361.756L543.898 344.77C542.219 346.409 540.081 347.497 537.769 347.89C535.457 348.283 533.08 347.962 530.954 346.97C528.829 345.978 527.056 344.361 525.87 342.336C524.685 340.31 524.144 337.972 524.319 335.631C524.494 333.29 525.376 331.058 526.85 329.231C528.323 327.405 530.316 326.071 532.566 325.406C534.815 324.741 537.213 324.778 539.441 325.511C541.669 326.243 543.621 327.638 545.038 329.508Z" fill="#FFB8B8"/>
<path d="M671.152 395.021C670.368 395.018 669.595 394.829 668.897 394.469C658.045 388.946 636.914 379.381 617.319 377.379C616.648 377.313 615.999 377.108 615.412 376.776C614.826 376.444 614.315 375.993 613.913 375.452C613.503 374.905 613.21 374.279 613.052 373.614C612.894 372.949 612.875 372.258 612.995 371.585C614.764 361.788 618.82 336.84 618.297 316.845C618.143 310.697 620.084 304.68 623.8 299.782C627.516 294.885 632.786 291.398 638.744 289.897C642.331 288.949 645.974 288.231 649.652 287.744C653.878 287.208 658.172 287.671 662.188 289.095C666.205 290.518 669.832 292.864 672.78 295.943C675.728 299.022 677.914 302.75 679.164 306.827C680.413 310.904 680.692 315.218 679.976 319.422C676.482 340.143 672.959 369.083 676.021 389.286C676.162 390.191 676.049 391.118 675.696 391.963C675.343 392.809 674.763 393.54 674.02 394.075C673.188 394.686 672.184 395.017 671.152 395.021Z" fill="#D85047"/>
<path d="M619.302 342.318C618.625 342.317 617.956 342.177 617.336 341.907L603.199 335.782C601.995 335.258 601.047 334.278 600.564 333.056C600.081 331.835 600.102 330.471 600.622 329.265L611.55 303.996C612.209 302.468 613.163 301.086 614.356 299.927C615.549 298.768 616.959 297.856 618.505 297.243C620.05 296.63 621.701 296.328 623.364 296.353C625.026 296.379 626.667 296.733 628.193 297.394C629.719 298.055 631.099 299.011 632.256 300.206C633.413 301.401 634.323 302.813 634.934 304.361C635.545 305.908 635.846 307.561 635.819 309.225C635.791 310.889 635.437 312.532 634.775 314.058L623.847 339.327C623.463 340.214 622.828 340.97 622.02 341.501C621.213 342.032 620.268 342.316 619.302 342.318Z" fill="#D85047"/>
<path d="M651.663 279.148C666.588 279.148 678.688 267.037 678.688 252.097C678.688 237.157 666.588 225.046 651.663 225.046C636.737 225.046 624.637 237.157 624.637 252.097C624.637 267.037 636.737 279.148 651.663 279.148Z" fill="#FFB8B8"/>
<path d="M624.151 238.807C636.952 246.628 651.384 251.388 666.323 252.715L661.877 247.384C665.114 248.582 668.52 249.259 671.968 249.39C675.413 249.336 679.021 248.009 680.976 245.169C681.848 243.758 682.366 242.157 682.486 240.502C682.606 238.847 682.324 237.187 681.664 235.665C680.31 232.628 678.201 229.989 675.539 227.999C670.821 224.263 665.254 221.754 659.332 220.695C653.41 219.635 647.318 220.059 641.6 221.928C637.677 223.101 634.164 225.357 631.463 228.436C628.901 231.6 623.969 234.418 625.28 238.273L624.151 238.807Z" fill="#2F2E41"/>
<path d="M656.207 216.976C647.683 208.324 637.368 201.648 625.988 197.416C618.683 194.708 610.732 193.034 603.095 194.572C595.458 196.111 588.236 201.399 586.105 208.899C584.363 215.032 586.162 221.635 588.866 227.408C591.569 233.182 595.179 238.535 597.366 244.524C599.596 250.634 600.267 257.206 599.317 263.642C598.367 270.077 595.827 276.174 591.926 281.378C588.025 286.581 582.887 290.727 576.979 293.44C571.071 296.152 564.58 297.344 558.095 296.908C565.599 297.915 572.515 301.445 579.85 303.324C587.184 305.202 595.841 305.075 601.292 299.815C607.058 294.251 607.174 285.203 606.895 277.19L605.652 241.456C605.44 235.381 605.26 229.112 607.448 223.442C609.637 217.772 614.838 212.807 620.911 212.859C625.513 212.898 629.586 215.689 633.277 218.441C636.968 221.193 640.875 224.129 645.459 224.539C650.043 224.948 655.277 221.552 654.934 216.958" fill="#2F2E41"/>
<path d="M530.584 309.585L592.812 311.055L601.827 377.641L544.359 378.932L530.584 309.585Z" fill="#E6E6E6"/>
<path d="M596.754 327.306C597.119 327.794 597.445 328.31 597.728 328.849L651.998 334.572L659.81 323.851L677.515 333.537L662.171 359.553L595.614 342.567C593.935 344.206 591.797 345.294 589.485 345.687C587.173 346.08 584.796 345.759 582.671 344.767C580.545 343.775 578.772 342.158 577.587 340.133C576.401 338.108 575.86 335.769 576.035 333.428C576.21 331.087 577.093 328.855 578.566 327.029C580.039 325.202 582.033 323.868 584.282 323.203C586.531 322.539 588.929 322.575 591.157 323.308C593.385 324.041 595.337 325.435 596.754 327.305V327.306Z" fill="#FFB8B8"/>
<path d="M671.018 343.419C670.342 343.418 669.672 343.278 669.052 343.008L654.915 336.883C653.711 336.359 652.764 335.379 652.281 334.158C651.798 332.936 651.818 331.572 652.338 330.366L663.266 305.098C663.925 303.57 664.879 302.187 666.072 301.028C667.265 299.869 668.675 298.957 670.221 298.344C671.766 297.731 673.418 297.429 675.08 297.455C676.742 297.481 678.383 297.834 679.909 298.495C681.435 299.156 682.816 300.112 683.972 301.307C685.129 302.503 686.039 303.915 686.65 305.462C687.262 307.01 687.562 308.663 687.535 310.327C687.508 311.991 687.153 313.633 686.491 315.16L675.563 340.428C675.179 341.315 674.544 342.071 673.737 342.602C672.929 343.134 671.984 343.418 671.018 343.419Z" fill="#D85047"/>
<path d="M543.098 343.062H105.16C103.263 343.062 101.444 343.816 100.103 345.159C98.7615 346.501 98.0079 348.322 98.0079 350.221C98.0079 352.12 98.7615 353.941 100.103 355.283C101.444 356.626 103.263 357.38 105.16 357.38H117.814V513.226C117.814 515.125 118.568 516.946 119.909 518.288C121.25 519.631 123.07 520.385 124.966 520.385C126.863 520.385 128.683 519.631 130.024 518.288C131.365 516.946 132.119 515.125 132.119 513.226V371.136L212.302 516.605C213.253 518.245 214.814 519.441 216.645 519.93C218.475 520.419 220.425 520.161 222.065 519.213C223.706 518.265 224.904 516.704 225.396 514.873C225.888 513.042 225.634 511.09 224.69 509.446L140.87 357.38H523.842V357.473L440.074 509.446C439.126 511.09 438.869 513.044 439.359 514.878C439.85 516.712 441.049 518.276 442.692 519.225C444.334 520.174 446.287 520.432 448.119 519.94C449.951 519.449 451.513 518.249 452.462 516.605L523.842 387.106V513.226C523.842 515.125 524.596 516.946 525.937 518.288C527.278 519.631 529.098 520.385 530.995 520.385C532.891 520.385 534.711 519.631 536.052 518.288C537.393 516.946 538.147 515.125 538.147 513.226V361.155L540.228 357.38H543.098C544.995 357.38 546.814 356.626 548.156 355.283C549.497 353.941 550.251 352.12 550.251 350.221C550.251 348.322 549.497 346.501 548.156 345.159C546.814 343.816 544.995 343.062 543.098 343.062Z" fill="#3F3D56"/>
</svg>
